<svg width="29" height="28" viewBox="0 0 29 28" fill="none" xmlns="http://www.w3.org/2000/svg">
<g clip-path="url(#clip0_6122_3062)">
<rect x="0.62085" width="27.621" height="27.621" rx="5.52419" fill="#D8D7FE"/>
<g clip-path="url(#clip1_6122_3062)">
<path d="M9.08406 5.73132H19.7915C21.4099 5.73132 22.7305 7.039 22.7305 8.67037V18.9635C22.7305 20.5819 21.4229 21.9025 19.7915 21.9025H9.08406C7.4527 21.8896 6.14502 20.5819 6.14502 18.9505V8.67037C6.14502 7.039 7.4527 5.73132 9.08406 5.73132Z" fill="#330000"/>
<path d="M14.1595 15.403H11.583L11.0651 17.0214C11.0522 17.0861 11.0004 17.125 10.9356 17.112H9.6409C9.56321 17.112 9.55026 17.0732 9.56321 16.9826L11.7902 10.5866C11.816 10.5219 11.829 10.4442 11.8549 10.3535C11.8808 10.2111 11.8937 10.0557 11.8937 9.90038C11.8808 9.86154 11.9196 9.83564 11.9455 9.8227H13.7323C13.784 9.8227 13.8099 9.84859 13.8229 9.87448L16.3476 16.9826C16.3735 17.0603 16.3476 17.0991 16.2829 17.0991H14.8328C14.781 17.112 14.7421 17.0732 14.7162 17.0214L14.1595 15.403ZM11.9844 13.9917H13.7323C13.6934 13.8493 13.6416 13.6681 13.5769 13.4997C13.5121 13.3185 13.4474 13.1113 13.3956 12.9042C13.3309 12.6841 13.2661 12.4769 13.2014 12.2697C13.1367 12.0496 13.0719 11.8554 13.0201 11.6612C12.9684 11.467 12.9166 11.2857 12.8648 11.1174H12.8518C12.7871 11.4152 12.7094 11.713 12.6188 12.0108C12.5152 12.3474 12.4116 12.6841 12.2951 13.0336C12.1915 13.3832 12.0879 13.7069 11.9844 13.9917ZM17.8883 11.0527C17.6553 11.0656 17.4352 10.975 17.2798 10.8067C17.1245 10.6384 17.0338 10.4053 17.0468 10.1723C17.0338 9.93922 17.1245 9.71912 17.2928 9.56375C17.4611 9.40838 17.6812 9.31775 17.9013 9.31775C18.1732 9.31775 18.3803 9.39543 18.5357 9.56375C18.6911 9.73206 18.7688 9.95217 18.7688 10.1723C18.7817 10.4053 18.6911 10.6384 18.5228 10.8067C18.3544 10.975 18.1214 11.0656 17.8883 11.0527ZM17.1115 17.0473V11.726C17.1115 11.6612 17.1374 11.6353 17.2021 11.6353H18.5746C18.6393 11.6353 18.6652 11.6742 18.6652 11.726V17.0473C18.6652 17.125 18.6393 17.1638 18.5746 17.1638H17.2151C17.1503 17.1509 17.1115 17.112 17.1115 17.0473Z" fill="#FF9A00"/>
</g>
</g>
<defs>
<clipPath id="clip0_6122_3062">
<rect width="27.621" height="27.621" fill="white" transform="translate(0.62085)"/>
</clipPath>
<clipPath id="clip1_6122_3062">
<rect width="16.5726" height="16.5726" fill="white" transform="translate(6.14502 5.52417)"/>
</clipPath>
</defs>
</svg>
