<svg width="50" height="50" viewBox="0 0 50 50" fill="none" xmlns="http://www.w3.org/2000/svg">
<g clip-path="url(#clip0_2129_13384)">
<rect width="50" height="50" rx="10" fill="#E9F1F7"/>
<g clip-path="url(#clip1_2129_13384)">
<path d="M15.3203 10.375H34.7031C37.6328 10.375 40.0234 12.7422 40.0234 15.6953V34.3281C40.0234 37.2578 37.6563 39.6484 34.7031 39.6484H15.3203C12.3672 39.625 10 37.2578 10 34.3047V15.6953C10 12.7422 12.3672 10.375 15.3203 10.375Z" fill="#330000"/>
<path d="M24.5079 27.8828H19.8439L18.9064 30.8125C18.8829 30.9297 18.7892 31 18.672 30.9766H16.3282C16.1876 30.9766 16.1642 30.9063 16.1876 30.7422L20.2189 19.1641C20.2657 19.0469 20.2892 18.9062 20.336 18.7422C20.3829 18.4844 20.4064 18.2031 20.4064 17.9219C20.3829 17.8516 20.4532 17.8047 20.5001 17.7813H23.7345C23.8282 17.7813 23.8751 17.8281 23.8985 17.875L28.4689 30.7422C28.5157 30.8828 28.4689 30.9531 28.3517 30.9531H25.7267C25.6329 30.9766 25.5626 30.9063 25.5157 30.8125L24.5079 27.8828ZM20.5704 25.3281H23.7345C23.6642 25.0703 23.5704 24.7422 23.4532 24.4375C23.336 24.1094 23.2189 23.7344 23.1251 23.3594C23.0079 22.9609 22.8907 22.5859 22.7735 22.2109C22.6564 21.8125 22.5392 21.4609 22.4454 21.1094C22.3517 20.7578 22.2579 20.4297 22.1642 20.125H22.1407C22.0235 20.6641 21.8829 21.2031 21.7189 21.7422C21.5314 22.3516 21.3439 22.9609 21.1329 23.5938C20.9454 24.2266 20.7579 24.8125 20.5704 25.3281ZM31.2579 20.0078C30.836 20.0313 30.4376 19.8672 30.1564 19.5625C29.8751 19.2578 29.711 18.8359 29.7345 18.4141C29.711 17.9922 29.8751 17.5938 30.1798 17.3125C30.4845 17.0313 30.8829 16.8672 31.2814 16.8672C31.7735 16.8672 32.1485 17.0078 32.4298 17.3125C32.711 17.6172 32.8517 18.0156 32.8517 18.4141C32.8751 18.8359 32.711 19.2578 32.4064 19.5625C32.1017 19.8672 31.6798 20.0313 31.2579 20.0078ZM29.8517 30.8594V21.2266C29.8517 21.1094 29.8985 21.0625 30.0157 21.0625H32.5001C32.6173 21.0625 32.6642 21.1328 32.6642 21.2266V30.8594C32.6642 31 32.6173 31.0703 32.5001 31.0703H30.0392C29.922 31.0469 29.8517 30.9766 29.8517 30.8594Z" fill="#FF9A00"/>
</g>
</g>
<defs>
<clipPath id="clip0_2129_13384">
<rect width="50" height="50" fill="white"/>
</clipPath>
<clipPath id="clip1_2129_13384">
<rect width="30" height="30" fill="white" transform="translate(10 10)"/>
</clipPath>
</defs>
</svg>
