<svg width="180" height="180" viewBox="0 0 180 180" fill="none" xmlns="http://www.w3.org/2000/svg">
<rect width="180" height="180" rx="20" fill="#0D05F2"/>
<path d="M33 149.616V29.7129H82.8455V46.8419H51.8419V80.2435H76.1652V97.3726H51.8419V149.616H33Z" fill="#F2F2F2"/>
<path d="M118.602 151.329C100.103 151.329 90.5107 140.366 90.5107 121.182V58.1471C90.5107 38.9626 100.103 28 118.602 28C137.102 28 146.694 38.9626 146.694 58.1471V68.4245H128.88V56.9481C128.88 48.3836 125.111 45.129 119.116 45.129C113.121 45.129 109.353 48.3836 109.353 56.9481V122.552C109.353 131.117 113.121 134.2 119.116 134.2C125.111 134.2 128.88 131.117 128.88 122.552V99.0855H119.459V81.9565H146.694V121.182C146.694 140.366 137.102 151.329 118.602 151.329Z" fill="#F2F2F2"/>
</svg>
