<svg width="28" height="28" viewBox="0 0 28 28" fill="none" xmlns="http://www.w3.org/2000/svg">
<g clip-path="url(#clip0_6122_3054)">
<rect width="27.621" height="27.621" rx="5.52419" fill="#D8D7FE"/>
<g clip-path="url(#clip1_6122_3054)">
<path d="M11.219 22.222C12.7083 22.222 13.9098 21.0205 13.9098 19.5311V16.8402H11.219C9.72959 16.8402 8.52808 18.0417 8.52808 19.5311C8.52808 21.0205 9.72959 22.222 11.219 22.222Z" fill="#0ACF83"/>
<path d="M8.52808 14.1494C8.52808 12.66 9.72959 11.4585 11.219 11.4585H13.9098V16.8403H11.219C9.72959 16.8403 8.52808 15.6388 8.52808 14.1494Z" fill="#A259FF"/>
<path d="M8.52808 8.76755C8.52808 7.27817 9.72959 6.07666 11.219 6.07666H13.9098V11.4584H11.219C9.72959 11.4584 8.52808 10.2569 8.52808 8.76755Z" fill="#F24E1E"/>
<path d="M13.9097 6.07666H16.6006C18.0899 6.07666 19.2914 7.27817 19.2914 8.76755C19.2914 10.2569 18.0899 11.4584 16.6006 11.4584H13.9097V6.07666Z" fill="#FF7262"/>
<path d="M19.2914 14.1494C19.2914 15.6388 18.0899 16.8403 16.6006 16.8403C15.1112 16.8403 13.9097 15.6388 13.9097 14.1494C13.9097 12.66 15.1112 11.4585 16.6006 11.4585C18.0899 11.4585 19.2914 12.66 19.2914 14.1494Z" fill="#1ABCFE"/>
</g>
</g>
<defs>
<clipPath id="clip0_6122_3054">
<rect width="27.621" height="27.621" fill="white"/>
</clipPath>
<clipPath id="clip1_6122_3054">
<rect width="16.0202" height="16.0202" fill="white" transform="translate(5.52417 6.07666)"/>
</clipPath>
</defs>
</svg>
