<svg width="50" height="50" viewBox="0 0 50 50" fill="none" xmlns="http://www.w3.org/2000/svg">
<g clip-path="url(#clip0_2129_13376)">
<rect width="50" height="50" rx="10" fill="#E9F1F7"/>
<g clip-path="url(#clip1_2129_13376)">
<path d="M20.3086 40.2266C23.0047 40.2266 25.1797 38.0516 25.1797 35.3555V30.4844H20.3086C17.6125 30.4844 15.4375 32.6594 15.4375 35.3555C15.4375 38.0516 17.6125 40.2266 20.3086 40.2266Z" fill="#0ACF83"/>
<path d="M15.4375 25.6133C15.4375 22.9172 17.6125 20.7422 20.3086 20.7422H25.1797V30.4844H20.3086C17.6125 30.4844 15.4375 28.3094 15.4375 25.6133Z" fill="#A259FF"/>
<path d="M15.4375 15.8711C15.4375 13.175 17.6125 11 20.3086 11H25.1797V20.7422H20.3086C17.6125 20.7422 15.4375 18.5672 15.4375 15.8711Z" fill="#F24E1E"/>
<path d="M25.1797 11H30.0508C32.7469 11 34.9219 13.175 34.9219 15.8711C34.9219 18.5672 32.7469 20.7422 30.0508 20.7422H25.1797V11Z" fill="#FF7262"/>
<path d="M34.9219 25.6133C34.9219 28.3094 32.7469 30.4844 30.0508 30.4844C27.3547 30.4844 25.1797 28.3094 25.1797 25.6133C25.1797 22.9172 27.3547 20.7422 30.0508 20.7422C32.7469 20.7422 34.9219 22.9172 34.9219 25.6133Z" fill="#1ABCFE"/>
</g>
</g>
<defs>
<clipPath id="clip0_2129_13376">
<rect width="50" height="50" fill="white"/>
</clipPath>
<clipPath id="clip1_2129_13376">
<rect width="29" height="29" fill="white" transform="translate(10 11)"/>
</clipPath>
</defs>
</svg>
