<svg width="84" height="84" viewBox="0 0 84 84" fill="none" xmlns="http://www.w3.org/2000/svg">
<rect x="2" y="2" width="80" height="80" rx="40" fill="#FEEA00"/>
<path fill-rule="evenodd" clip-rule="evenodd" d="M52.9249 50.4076C53.6142 50.2522 54.2574 49.9374 54.8031 49.4886C56.787 47.873 56.9402 44.1933 55.3246 42.2094C53.94 40.5034 52.1697 39.1511 50.1596 38.264C48.1495 37.3769 45.9574 36.9804 43.7639 37.1073L48.5778 26.0718C48.8519 25.4444 48.9984 24.7688 49.0088 24.0843C49.0191 23.3997 48.8932 22.72 48.6383 22.0846C48.3834 21.4492 48.0046 20.8709 47.524 20.3834C47.0435 19.8958 46.4706 19.5088 45.839 19.2447C44.79 18.7939 43.617 18.7216 42.5206 19.0402C41.4243 19.3589 40.4727 20.0487 39.8289 20.9916C38.8223 22.4978 37.5787 24.4343 36.3023 26.6224V23.7742C36.2184 23.0948 36.0002 22.4389 35.6603 21.8447C35.3205 21.2504 34.8658 20.7297 34.3227 20.3129C33.7797 19.8962 33.1591 19.5916 32.4972 19.4169C31.8353 19.2423 31.1452 19.2011 30.4673 19.2958C28.1223 19.624 26.3098 21.4949 26.1785 23.8544C25.832 30.0615 25.6862 42.0489 28.9501 49.3464H28.9939C28.7131 58.4855 29.1544 65.0646 29.1544 65.0646H48.7018C50.4456 64.5405 52.069 63.678 53.4793 62.5263C55.3819 60.9774 56.8392 58.9513 57.7024 56.6548C57.9798 55.9187 58.0651 55.1241 57.9504 54.346C57.8356 53.5678 57.5246 52.8317 57.0466 52.207C56.5686 51.5823 55.9394 51.0897 55.2183 50.7755C54.4972 50.4613 53.7079 50.336 52.9249 50.4113M41.4846 54.5578C40.7084 53.6051 40.3424 52.3831 40.4673 51.1605C40.5921 49.938 41.1974 48.8151 42.1501 48.0389C43.1029 47.2627 44.3249 46.8968 45.5474 47.0216C46.7699 47.1464 47.8928 47.7518 48.669 48.7045C49.6865 49.9554 51.2218 50.5353 52.7098 50.393C51.9653 50.5641 51.2747 50.9167 50.6994 51.4194C50.1242 51.9221 49.6823 52.5592 49.413 53.2741C49.1249 54.0354 48.6413 54.7074 48.0108 55.2223C47.3803 55.7372 46.6253 56.0768 45.8217 56.207C45.0182 56.3372 44.1945 56.2532 43.4337 55.9637C42.673 55.6742 41.9983 55.1893 41.4846 54.5578Z" fill="white"/>
<path d="M48.6984 65.0646C50.3906 64.554 52.0171 63.7152 53.4759 62.5263C55.3785 60.9774 56.8358 58.9513 57.699 56.6548C57.9764 55.9187 58.0617 55.1241 57.947 54.346C57.8322 53.5678 57.5212 52.8317 57.0432 52.207C56.5652 51.5823 55.936 51.0897 55.2149 50.7755C54.4938 50.4613 53.7045 50.336 52.9215 50.4113C53.5926 50.2581 54.2344 49.9517 54.8034 49.4886C56.7873 47.873 56.9404 44.1933 55.3249 42.2094C53.9399 40.5041 52.1694 39.1524 50.1594 38.266C48.1493 37.3795 45.9573 36.9836 43.7642 37.111L48.5781 26.0718C48.8521 25.4444 48.9986 24.7688 49.009 24.0843C49.0194 23.3997 48.8935 22.72 48.6386 22.0846C48.3837 21.4492 48.0049 20.8709 47.5243 20.3834C47.0437 19.8958 46.4709 19.5088 45.8392 19.2447C44.7903 18.7939 43.6173 18.7216 42.5209 19.0402C41.4245 19.3589 40.473 20.0487 39.8291 20.9916C36.215 26.3963 29.5667 37.359 29.1546 45.4259C28.5821 56.549 29.1546 65.0646 29.1546 65.0646" stroke="#2C2C2C" stroke-width="0.997526" stroke-linecap="round" stroke-linejoin="round"/>
<path d="M42.1486 48.0375C41.6002 48.4875 41.1624 49.0576 40.8692 49.7036C40.576 50.3496 40.4351 51.0544 40.4574 51.7635C40.4797 52.4726 40.6646 53.1672 40.9979 53.7935C41.3311 54.4198 41.8038 54.9612 42.3795 55.3759C42.9551 55.7906 43.6183 56.0675 44.318 56.1852C45.0176 56.303 45.7349 56.2584 46.4146 56.055C47.0943 55.8516 47.7182 55.4948 48.2381 55.012C48.758 54.5293 49.1601 53.9336 49.4133 53.2708C49.6826 52.5559 50.1245 51.9188 50.6997 51.4161C51.2749 50.9134 51.9656 50.5608 52.7101 50.3897C51.9495 50.4635 51.1825 50.3479 50.4775 50.0532C49.7725 49.7586 49.1513 49.2942 48.6693 48.7012C48.285 48.2297 47.8116 47.8384 47.2761 47.5499C46.7405 47.2613 46.1534 47.0811 45.5483 47.0194C44.9431 46.9578 44.3317 47.016 43.749 47.1907C43.1663 47.3653 42.6201 47.6531 42.1486 48.0375Z" stroke="#2C2C2C" stroke-width="0.997526" stroke-linecap="round" stroke-linejoin="round"/>
<path d="M43.797 37.1182C42.8633 37.2276 40.646 37.6397 39.2383 38.4056M28.9467 49.3463C25.6827 42.0488 25.8286 30.0614 26.1751 23.8544C26.2511 22.7163 26.72 21.6399 27.5015 20.8091C28.2831 19.9783 29.3289 19.4447 30.4602 19.2994C31.1382 19.2047 31.8282 19.2459 32.4901 19.4205C33.152 19.5952 33.7726 19.8997 34.3157 20.3165C34.8587 20.7333 35.3134 21.254 35.6533 21.8482C35.9931 22.4425 36.2114 23.0984 36.2953 23.7778V26.6917" stroke="#2C2C2C" stroke-width="0.997526" stroke-linecap="round" stroke-linejoin="round"/>
<path d="M29.0886 65.1534H48.5388" stroke="#2C2C2C" stroke-width="0.897773" stroke-linecap="round"/>
</svg>
