<svg width="50" height="50" viewBox="0 0 50 50" fill="none" xmlns="http://www.w3.org/2000/svg">
<rect width="50" height="50" rx="10" fill="#FEEA00"/>
<g clip-path="url(#clip0_6137_2102)">
<path fill-rule="evenodd" clip-rule="evenodd" d="M35.0179 15.1789L32.625 9.19678H15.875L13.4822 15.1789H35.0179ZM35.0179 24.7503H13.4822L15.875 40.3039H32.625L35.0179 24.7503Z" fill="#D7E0FF"/>
<path d="M35.0177 15.1782H13.482C12.8473 15.1782 12.2387 15.4303 11.79 15.8791C11.3412 16.3278 11.0891 16.9365 11.0891 17.5711V22.3568C11.0891 22.9914 11.3412 23.6001 11.79 24.0488C12.2387 24.4975 12.8473 24.7497 13.482 24.7497H35.0177C35.6523 24.7497 36.2609 24.4975 36.7097 24.0488C37.1584 23.6001 37.4105 22.9914 37.4105 22.3568V17.5711C37.4105 16.9365 37.1584 16.3278 36.7097 15.8791C36.2609 15.4303 35.6523 15.1782 35.0177 15.1782Z" fill="white"/>
<path d="M35.0177 15.1789H13.482M35.0177 15.1789C35.6523 15.1789 36.2609 15.431 36.7097 15.8798C37.1584 16.3285 37.4105 16.9372 37.4105 17.5718V22.3575C37.4105 22.9921 37.1584 23.6007 36.7097 24.0495C36.2609 24.4982 35.6523 24.7503 35.0177 24.7503M35.0177 15.1789L32.6248 9.19678H15.8748L13.482 15.1789M13.482 15.1789C12.8473 15.1789 12.2387 15.431 11.79 15.8798C11.3412 16.3285 11.0891 16.9372 11.0891 17.5718V22.3575C11.0891 22.9921 11.3412 23.6007 11.79 24.0495C12.2387 24.4982 12.8473 24.7503 13.482 24.7503M13.482 24.7503H35.0177M13.482 24.7503L15.8748 40.3039H32.6248L35.0177 24.7503" stroke="#0D05F2" stroke-width="2.39286" stroke-linecap="round" stroke-linejoin="round"/>
</g>
<defs>
<clipPath id="clip0_6137_2102">
<rect width="33.5" height="33.5" fill="white" transform="translate(7.5 8)"/>
</clipPath>
</defs>
</svg>
