<svg width="50" height="50" viewBox="0 0 50 50" fill="none" xmlns="http://www.w3.org/2000/svg">
<rect width="50" height="50" rx="10" fill="#FEEA00"/>
<path d="M11.3652 28.6156C11.3652 25.1984 12.7227 21.9211 15.139 19.5048C17.5554 17.0884 20.8326 15.731 24.2498 15.731C27.6671 15.731 30.9443 17.0884 33.3606 19.5048C35.777 21.9211 37.1345 25.1984 37.1345 28.6156V31.3471C37.1345 34.0399 36.0648 36.6223 34.1607 38.5264C32.2566 40.4305 29.6741 41.5002 26.9814 41.5002H21.5183C18.8255 41.5002 16.2431 40.4305 14.339 38.5264C12.4349 36.6223 11.3652 34.0399 11.3652 31.3471V28.6156Z" fill="#D7E0FF"/>
<path d="M11.3652 26.0385V8L21.6729 15.7308H24.2498C21.2795 15.7302 18.4003 16.7558 16.0993 18.6342C13.7983 20.5125 12.217 23.1282 11.6229 26.0385H11.3652ZM36.8768 26.0385C36.2827 23.1282 34.7014 20.5125 32.4004 18.6342C30.0994 16.7558 27.2201 15.7302 24.2498 15.7308H26.8268L37.1345 8V26.0385H36.8768Z" fill="white"/>
<path d="M11.3652 26.0385V8L21.6729 15.7308M17.8075 40.7527C19.036 41.2478 20.3484 41.5015 21.6729 41.5H26.8268C28.1513 41.5015 29.4637 41.2478 30.6922 40.7527M37.1345 26.0385V8L26.8268 15.7308" stroke="#0D05F2" stroke-width="2.57692" stroke-linecap="round" stroke-linejoin="round"/>
<path d="M16.5682 18.3079C18.4545 16.7256 21.1963 15.731 24.25 15.731C27.3036 15.731 30.0481 16.7256 31.9344 18.3079M7.5 31.1925H16.5192M16.5192 36.3463L8.78846 40.2117M31.9808 31.1925H41M31.9808 36.3463L39.7115 40.2117M26.1827 31.1925H22.3173L24.25 32.481L26.1827 31.1925ZM19.0962 25.3944C18.9253 25.3944 18.7614 25.3265 18.6406 25.2057C18.5198 25.0849 18.4519 24.921 18.4519 24.7502C18.4519 24.5793 18.5198 24.4155 18.6406 24.2946C18.7614 24.1738 18.9253 24.106 19.0962 24.106C19.267 24.106 19.4309 24.1738 19.5517 24.2946C19.6725 24.4155 19.7404 24.5793 19.7404 24.7502C19.7404 24.921 19.6725 25.0849 19.5517 25.2057C19.4309 25.3265 19.267 25.3944 19.0962 25.3944ZM29.4038 25.3944C29.233 25.3944 29.0691 25.3265 28.9483 25.2057C28.8275 25.0849 28.7596 24.921 28.7596 24.7502C28.7596 24.5793 28.8275 24.4155 28.9483 24.2946C29.0691 24.1738 29.233 24.106 29.4038 24.106C29.5747 24.106 29.7386 24.1738 29.8594 24.2946C29.9802 24.4155 30.0481 24.5793 30.0481 24.7502C30.0481 24.921 29.9802 25.0849 29.8594 25.2057C29.7386 25.3265 29.5747 25.3944 29.4038 25.3944Z" stroke="#0D05F2" stroke-width="2.57692" stroke-linecap="round" stroke-linejoin="round"/>
</svg>
