<svg width="29" height="28" viewBox="0 0 29 28" fill="none" xmlns="http://www.w3.org/2000/svg">
<g clip-path="url(#clip0_6122_3083)">
<rect x="0.862793" width="27.621" height="27.621" rx="5.52419" fill="#D8D7FE"/>
<g clip-path="url(#clip1_6122_3083)">
<path d="M9.32601 5.73132H20.0334C21.6519 5.73132 22.9725 7.039 22.9725 8.67037V18.9635C22.9725 20.5819 21.6648 21.9025 20.0334 21.9025H9.32601C7.69464 21.8896 6.38696 20.5819 6.38696 18.9505V8.67037C6.38696 7.039 7.69464 5.73132 9.32601 5.73132Z" fill="#330000"/>
<path d="M14.4015 15.403H11.8249L11.307 17.0214C11.2941 17.0861 11.2423 17.125 11.1776 17.112H9.88284C9.80516 17.112 9.79221 17.0732 9.80516 16.9826L12.0321 10.5866C12.058 10.5219 12.0709 10.4442 12.0968 10.3535C12.1227 10.2111 12.1357 10.0557 12.1357 9.90038C12.1227 9.86154 12.1616 9.83564 12.1875 9.8227H13.9742C14.026 9.8227 14.0519 9.84859 14.0648 9.87448L16.5896 16.9826C16.6155 17.0603 16.5896 17.0991 16.5248 17.0991H15.0747C15.0229 17.112 14.9841 17.0732 14.9582 17.0214L14.4015 15.403ZM12.2263 13.9917H13.9742C13.9354 13.8493 13.8836 13.6681 13.8188 13.4997C13.7541 13.3185 13.6894 13.1113 13.6376 12.9042C13.5728 12.6841 13.5081 12.4769 13.4434 12.2697C13.3786 12.0496 13.3139 11.8554 13.2621 11.6612C13.2103 11.467 13.1585 11.2857 13.1067 11.1174H13.0938C13.029 11.4152 12.9514 11.713 12.8607 12.0108C12.7571 12.3474 12.6536 12.6841 12.537 13.0336C12.4335 13.3832 12.3299 13.7069 12.2263 13.9917ZM18.1303 11.0527C17.8972 11.0656 17.6771 10.975 17.5218 10.8067C17.3664 10.6384 17.2758 10.4053 17.2887 10.1723C17.2758 9.93922 17.3664 9.71912 17.5347 9.56375C17.703 9.40838 17.9231 9.31775 18.1432 9.31775C18.4151 9.31775 18.6223 9.39543 18.7777 9.56375C18.933 9.73206 19.0107 9.95217 19.0107 10.1723C19.0237 10.4053 18.933 10.6384 18.7647 10.8067C18.5964 10.975 18.3633 11.0656 18.1303 11.0527ZM17.3534 17.0473V11.726C17.3534 11.6612 17.3793 11.6353 17.4441 11.6353H18.8165C18.8812 11.6353 18.9071 11.6742 18.9071 11.726V17.0473C18.9071 17.125 18.8812 17.1638 18.8165 17.1638H17.457C17.3923 17.1509 17.3534 17.112 17.3534 17.0473Z" fill="#FF9A00"/>
</g>
<g clip-path="url(#clip2_6122_3083)">
<path d="M9.32173 5.73132H20.0248C21.6476 5.73132 22.9595 7.04328 22.9595 8.66609V18.9548C22.9595 20.5776 21.6476 21.8896 20.0248 21.8896H9.32173C7.69892 21.8896 6.38696 20.5776 6.38696 18.9548V8.66609C6.38696 7.04328 7.69892 5.73132 9.32173 5.73132Z" fill="#49021F"/>
<path d="M12.344 10.682V17.6832C12.344 17.7565 12.3118 17.7932 12.2474 17.7932H10.9486C10.8913 17.7932 10.8627 17.7565 10.8628 17.6832V10.682C10.8628 10.6234 10.895 10.5941 10.9594 10.5941H12.2581C12.269 10.5925 12.2802 10.5933 12.2907 10.5966C12.3013 10.5999 12.311 10.6055 12.3192 10.613C12.3275 10.6205 12.334 10.6297 12.3384 10.6401C12.3428 10.6505 12.3449 10.6617 12.3447 10.673L12.344 10.682ZM16.2556 17.9024L16.1865 17.9031C15.6925 17.9108 15.203 17.8057 14.7536 17.5953C14.335 17.3969 13.985 17.0731 13.75 16.6666C13.5126 16.2628 13.391 15.7595 13.3853 15.1568L13.3851 15.1114C13.3811 14.6069 13.507 14.1103 13.7501 13.6716C13.9938 13.2367 14.3492 12.8784 14.7778 12.6359L14.8127 12.6164C15.2777 12.3526 15.8394 12.2207 16.4978 12.2207L16.5117 12.2208L16.5425 12.2215L16.5774 12.2229L16.6163 12.225L16.6592 12.2277L16.7062 12.2312L16.8122 12.2401L16.8412 12.2427V10.0776C16.8412 10.0263 16.8627 10.0007 16.9056 10.0006H18.258C18.2668 9.99931 18.2757 10.0001 18.2841 10.003C18.2925 10.0058 18.3001 10.0107 18.3063 10.0171C18.3126 10.0235 18.3173 10.0313 18.3201 10.0398C18.3229 10.0484 18.3237 10.0576 18.3224 10.0665V16.5622C18.3228 16.6979 18.3282 16.8335 18.3385 16.9688L18.3487 17.1105L18.3576 17.2424L18.3654 17.3645C18.3667 17.3873 18.3612 17.41 18.3498 17.4297C18.3383 17.4493 18.3213 17.4649 18.301 17.4744C17.9521 17.6234 17.5887 17.7339 17.2169 17.8041C16.8997 17.8641 16.5782 17.897 16.2557 17.9024M16.8413 16.5402V13.5397C16.7833 13.5236 16.7241 13.5125 16.6642 13.5067C16.5911 13.4991 16.5177 13.4955 16.4442 13.4957C16.1837 13.4931 15.9263 13.5533 15.6929 13.6716C15.4655 13.7874 15.2713 13.9616 15.1294 14.1772C14.9826 14.3969 14.9093 14.6864 14.9093 15.0455C14.9041 15.285 14.9423 15.5235 15.022 15.7488C15.0869 15.9304 15.1894 16.0954 15.3225 16.2325C15.45 16.3586 15.6043 16.4526 15.7734 16.5072C15.9519 16.5664 16.1385 16.5961 16.3261 16.5952C16.4262 16.5952 16.5193 16.5915 16.6052 16.5841C16.6737 16.5789 16.7416 16.5673 16.8082 16.5496L16.8413 16.5402Z" fill="#FF3366"/>
</g>
</g>
<defs>
<clipPath id="clip0_6122_3083">
<rect width="27.621" height="27.621" fill="white" transform="translate(0.862793)"/>
</clipPath>
<clipPath id="clip1_6122_3083">
<rect width="16.5726" height="16.5726" fill="white" transform="translate(6.38696 5.52417)"/>
</clipPath>
<clipPath id="clip2_6122_3083">
<rect width="16.5726" height="16.5726" fill="white" transform="translate(6.38696 5.52417)"/>
</clipPath>
</defs>
</svg>
