<svg width="50" height="50" viewBox="0 0 50 50" fill="none" xmlns="http://www.w3.org/2000/svg">
<g clip-path="url(#clip0_2129_13397)">
<rect width="50" height="50" rx="10" fill="#E9F1F7"/>
<g clip-path="url(#clip1_2129_13397)">
<path d="M39.1076 30.5517C39.1903 30.7686 39.1224 30.9502 38.9388 31.0993C37.2197 32.4961 35.4151 33.7632 33.4508 34.7884L31.8108 35.6434C32.1491 35.916 32.5308 35.9927 32.9362 35.9775C33.3799 35.9607 33.7517 35.755 34.0949 35.4907C34.5053 35.1748 34.8933 34.8253 35.3244 34.542C36.3682 33.8563 37.4932 33.9183 38.4804 34.6915C38.8998 35.0201 39.2853 35.3953 39.7204 35.6994C39.9308 35.8464 40.2002 35.9265 40.4584 35.9841L40.5156 35.9966C40.8289 36.0633 41.0193 36.2225 40.9984 36.4956C40.9778 36.7666 40.7651 36.925 40.4438 36.904C39.7632 36.8596 39.2297 36.5053 38.7297 36.0769C38.4174 35.8094 38.1159 35.5243 37.7789 35.2922C37.1541 34.8621 36.4911 34.8496 35.8544 35.2626C35.4793 35.506 35.1382 35.8037 34.7871 36.0837C34.2212 36.5351 33.6104 36.8674 32.8653 36.8788C32.0481 36.8913 31.3903 36.5211 30.7878 36.0125C30.5723 35.8306 30.3589 35.646 30.1393 35.4692C29.3161 34.8064 28.4726 34.8067 27.6464 35.4698C27.5503 35.5472 27.4548 35.6254 27.3599 35.7044L27.1699 35.8621C27.0121 35.9942 26.8517 36.123 26.6888 36.2485C25.6776 37.02 24.5194 37.0568 23.4716 36.3344C23.0903 36.0716 22.7427 35.7589 22.3791 35.4698C21.5528 34.813 20.8671 34.8149 20.0261 35.467L19.9573 35.5205L19.7511 35.6813C19.4761 35.8958 19.1992 36.1084 18.9086 36.2991C17.8136 37.0177 16.6989 36.9877 15.6106 36.2931C15.1602 36.0057 14.7491 35.6557 14.3224 35.3303L14.2583 35.2816C14.0881 35.1533 13.9198 35.0219 13.7451 34.9001C13.5013 34.7303 13.2388 34.6828 12.9748 34.8446C12.5083 35.1305 12.0473 35.4255 11.5853 35.7187C11.1487 35.9958 10.7268 36.3003 10.2728 36.5441C10.0268 36.676 9.7313 36.7375 9.45093 36.7737C9.18993 36.8073 9.01043 36.6117 9.00043 36.3649C8.99068 36.1219 9.14793 35.9693 9.3923 35.8991L9.40655 35.8952C9.6663 35.825 9.93393 35.736 10.1593 35.593C10.7952 35.1894 11.4114 34.7541 12.0347 34.3303C12.0524 34.3183 12.0627 34.2955 12.0838 34.2681L11.6969 33.5295C11.5676 33.2831 11.4387 33.0362 11.3103 32.7889C11.0853 32.3552 11.2317 32.0642 11.7149 32.0294C13.0178 31.9354 14.3216 31.8548 15.6249 31.7701L23.1276 31.2841C24.9009 31.1689 26.6742 31.0526 28.4476 30.9372C30.9482 30.7743 33.449 30.6116 35.9498 30.4489C36.6148 30.4057 37.2798 30.3636 37.9448 30.3197L38.6098 30.2752C38.8388 30.2596 39.0226 30.3294 39.1076 30.5517ZM37.2051 31.3187L37.1827 31.2636L12.3568 32.8769L12.4181 32.9924C12.5791 33.2968 12.7216 33.5716 12.8772 33.8385C12.8916 33.8631 12.9418 33.8682 12.9944 33.8701L13.0482 33.8713L13.0643 33.872L13.0796 33.8728C13.2953 33.8889 13.5311 33.8505 13.7227 33.9268C14.0284 34.0487 14.3207 34.2233 14.5902 34.4159C15.0727 34.7607 15.5192 35.1579 16.0077 35.4928C16.8759 36.0879 17.6936 36.0702 18.5477 35.4669C18.9081 35.2122 19.2499 34.9309 19.6071 34.6712C20.7236 33.8593 21.7813 33.8761 22.8712 34.7238C23.1897 34.9716 23.4933 35.2389 23.8112 35.4873C24.6084 36.1103 25.4173 36.1126 26.2104 35.4937C26.4746 35.2877 26.7261 35.0651 26.9853 34.8525C28.1611 33.8885 29.3528 33.7955 30.5091 34.6553L30.5441 34.6816C30.9141 34.9632 31.1894 34.9491 31.5582 34.7635L31.7377 34.6729C33.3823 33.8405 34.9958 32.9561 36.4854 31.8571C36.7264 31.6792 36.9653 31.4982 37.2051 31.3187ZM14.1522 10.0851C16.8392 11.3087 19.2522 12.9547 21.4453 14.933C24.1741 17.3948 26.3248 20.3017 27.9133 23.6263C28.7493 25.3763 29.3996 27.1939 29.6983 29.1237L29.7126 29.2184L29.7343 29.3695C29.7347 29.743 29.4383 29.9624 29.1293 29.8363C27.5953 29.2107 26.0113 28.7768 24.3744 28.529C22.2113 28.2015 20.0753 28.283 17.9723 28.922C16.5777 29.3459 15.2511 29.924 14.0183 30.713C13.7907 30.8587 13.5493 30.8332 13.4008 30.6549C13.2463 30.4698 13.2466 30.2464 13.4249 30.051C14.7128 28.6395 15.4622 26.9444 15.9591 25.1218C16.4444 23.341 16.6217 21.5212 16.5129 19.6802C16.4313 18.2965 16.1026 16.9576 15.6723 15.6433C15.1157 13.9429 14.3934 12.3175 13.5226 10.7584C13.3803 10.5036 13.3829 10.3051 13.5268 10.1421C13.6757 9.9733 13.8674 9.95539 14.1522 10.0851ZM22.4359 13.2635C22.6851 13.3368 23.0207 13.4092 23.3364 13.5331C24.5968 14.0283 25.6827 14.814 26.7172 15.6723C28.3984 17.0672 29.9378 18.6101 31.3146 20.3118C32.2727 21.4961 33.0587 22.7989 33.7753 24.1436C34.5878 25.6686 35.2877 27.2451 35.8816 28.8691L35.9228 28.9826C35.9386 29.0257 35.9547 29.0687 35.9691 29.1123C36.0317 29.3 36.0239 29.4817 35.8782 29.6251C35.7294 29.7716 35.5509 29.7813 35.3626 29.7069L35.3494 29.7016C35.0794 29.5896 34.8057 29.4862 34.5363 29.3731L34.4211 29.324C33.6628 28.9954 32.8836 28.9298 32.0811 29.1138C32.0071 29.1308 31.9321 29.1437 31.8571 29.1553C31.5593 29.2016 31.3733 29.0841 31.2921 28.7932C30.5104 25.994 29.4084 23.3287 28.0133 20.7857L27.9436 20.659C27.0441 19.0368 26.0143 17.5113 24.6761 16.2153C23.8859 15.4499 23.0544 14.7364 22.1361 14.1304C21.9233 13.99 21.8436 13.7951 21.9136 13.5823C21.9826 13.3732 22.1434 13.2909 22.4359 13.2635ZM14.9557 11.4873C14.9582 11.5581 14.9771 11.6135 15.0026 11.6652C15.5866 12.8541 16.0944 14.0753 16.5068 15.3353C16.8981 16.5306 17.1981 17.7489 17.3418 19.0018C17.5027 20.404 17.4366 21.8027 17.2459 23.1974C16.9951 25.0341 16.4903 26.7909 15.6198 28.4317L15.5186 28.6229L15.3651 28.9134C15.3972 28.9223 15.4136 28.9327 15.4241 28.9286C15.5158 28.8921 15.6068 28.854 15.6972 28.8141C17.5447 27.9955 19.4698 27.5012 21.4918 27.4504C23.8006 27.3923 26.0368 27.8125 28.2206 28.5443L28.3697 28.5942C28.4777 28.63 28.5929 28.6669 28.7422 28.7157C27.8576 24.8073 26.0237 21.4478 23.5519 18.4258C21.1691 15.5126 18.2708 13.2363 14.9557 11.4873ZM25.9262 16.2261L25.9554 16.2595L26.0136 16.3249C26.0361 16.3503 26.0564 16.3743 26.0756 16.3993C26.2116 16.5764 26.3493 16.7522 26.4887 16.9267L26.7161 17.2121C27.0576 17.6416 27.3948 18.0741 27.6913 18.5331C29.5669 21.4367 30.9462 24.5764 31.9516 27.8852L31.9819 27.9855C32.0342 28.1587 32.1059 28.2074 32.2732 28.1819L32.2848 28.18C33.0369 28.0536 33.7721 28.1193 34.4848 28.3964L34.5217 28.4109C34.5898 28.4381 34.6626 28.4533 34.7946 28.4923C33.8289 26.0604 32.6877 23.7967 31.2436 21.6865C29.9948 19.8619 26.6509 16.6221 25.9261 16.2259" fill="#1A222D"/>
</g>
</g>
<defs>
<clipPath id="clip0_2129_13397">
<rect width="50" height="50" fill="white"/>
</clipPath>
<clipPath id="clip1_2129_13397">
<rect width="32" height="27" fill="white" transform="translate(9 10)"/>
</clipPath>
</defs>
</svg>
