<svg width="15" height="21" viewBox="0 0 15 21" fill="none" xmlns="http://www.w3.org/2000/svg">
<path fill-rule="evenodd" clip-rule="evenodd" d="M12.0464 13.95C12.3292 13.8862 12.5931 13.7571 12.817 13.5729C13.631 12.91 13.6938 11.4003 13.031 10.5863C12.4629 9.88637 11.7365 9.33153 10.9118 8.96756C10.0871 8.6036 9.18769 8.44094 8.28774 8.493L10.2628 3.96523C10.3753 3.70783 10.4354 3.43064 10.4396 3.14978C10.4439 2.86893 10.3922 2.59004 10.2877 2.32935C10.1831 2.06866 10.0277 1.83138 9.83048 1.63134C9.6333 1.4313 9.39828 1.2725 9.13912 1.16418C8.70875 0.979189 8.22747 0.949528 7.77764 1.08027C7.32781 1.21102 6.9374 1.49404 6.67324 1.8809C6.26027 2.49887 5.75003 3.2934 5.22633 4.19117V3.02257C5.19191 2.74382 5.10237 2.4747 4.96293 2.23089C4.82349 1.98708 4.63693 1.77346 4.41412 1.60245C4.19131 1.43144 3.93671 1.30648 3.66513 1.23483C3.39355 1.16319 3.11044 1.14629 2.83227 1.18513C1.87015 1.31979 1.1265 2.08739 1.07263 3.05549C0.930485 5.60217 0.870634 10.5205 2.20981 13.5145H2.22777C2.11255 17.2642 2.2936 19.9635 2.2936 19.9635H10.3137C11.0292 19.7485 11.6952 19.3947 12.2738 18.9221C13.0545 18.2867 13.6524 17.4553 14.0066 16.5131C14.1204 16.2111 14.1554 15.8851 14.1083 15.5658C14.0612 15.2466 13.9336 14.9445 13.7375 14.6882C13.5414 14.4319 13.2832 14.2298 12.9873 14.1009C12.6915 13.972 12.3677 13.9206 12.0464 13.9515M7.35256 15.6527C7.03409 15.2619 6.88395 14.7605 6.93516 14.2589C6.98637 13.7573 7.23474 13.2966 7.62563 12.9781C8.01652 12.6597 8.5179 12.5095 9.01949 12.5607C9.52108 12.6119 9.98178 12.8603 10.3002 13.2512C10.7177 13.7644 11.3476 14.0023 11.9581 13.944C11.6527 14.0142 11.3693 14.1588 11.1333 14.3651C10.8973 14.5713 10.716 14.8327 10.6055 15.126C10.4873 15.4384 10.2889 15.7141 10.0302 15.9254C9.77151 16.1366 9.46172 16.276 9.13204 16.3294C8.80235 16.3828 8.46442 16.3484 8.15228 16.2296C7.84013 16.1108 7.56332 15.9118 7.35256 15.6527Z" fill="white"/>
<path d="M10.3123 19.9635C11.0066 19.7541 11.674 19.4099 12.2725 18.9221C13.0531 18.2867 13.651 17.4553 14.0052 16.5131C14.119 16.2111 14.154 15.8851 14.1069 15.5658C14.0599 15.2466 13.9322 14.9445 13.7361 14.6882C13.54 14.4319 13.2818 14.2298 12.986 14.1009C12.6901 13.972 12.3663 13.9206 12.0451 13.9515C12.3204 13.8886 12.5837 13.7629 12.8171 13.5729C13.6311 12.91 13.694 11.4003 13.0311 10.5863C12.4629 9.88664 11.7365 9.33209 10.9118 8.96839C10.087 8.60468 9.1877 8.44226 8.28787 8.4945L10.263 3.96523C10.3754 3.70783 10.4355 3.43064 10.4398 3.14978C10.444 2.86893 10.3924 2.59004 10.2878 2.32935C10.1832 2.06866 10.0278 1.83138 9.83062 1.63134C9.63343 1.4313 9.39842 1.2725 9.13926 1.16418C8.70889 0.979189 8.2276 0.949528 7.77777 1.08027C7.32794 1.21102 6.93754 1.49404 6.67338 1.8809C5.19055 4.0984 2.46282 8.59624 2.29374 11.906C2.05882 16.4697 2.29374 19.9635 2.29374 19.9635" stroke="#2C2C2C" stroke-width="0.997526" stroke-linecap="round" stroke-linejoin="round"/>
<path d="M7.62495 12.9776C7.39993 13.1622 7.22033 13.3961 7.10002 13.6612C6.97971 13.9262 6.9219 14.2154 6.93105 14.5063C6.94021 14.7973 7.01608 15.0822 7.15281 15.3392C7.28954 15.5962 7.48348 15.8183 7.71967 15.9884C7.95585 16.1586 8.22797 16.2722 8.51502 16.3205C8.80207 16.3688 9.09638 16.3505 9.37525 16.2671C9.65411 16.1836 9.91008 16.0372 10.1234 15.8391C10.3367 15.6411 10.5017 15.3967 10.6056 15.1247C10.7161 14.8314 10.8974 14.57 11.1334 14.3638C11.3694 14.1575 11.6527 14.0129 11.9582 13.9427C11.6462 13.9729 11.3315 13.9255 11.0422 13.8046C10.7529 13.6837 10.4981 13.4932 10.3003 13.2499C10.1426 13.0564 9.9484 12.8959 9.72869 12.7775C9.50897 12.6591 9.26809 12.5851 9.01979 12.5599C8.77149 12.5346 8.52064 12.5584 8.28157 12.6301C8.0425 12.7018 7.81839 12.8198 7.62495 12.9776Z" stroke="#2C2C2C" stroke-width="0.997526" stroke-linecap="round" stroke-linejoin="round"/>
<path d="M8.30129 8.49747C7.91824 8.54235 7.0085 8.71143 6.43093 9.02566M2.20841 13.5145C0.86923 10.5204 0.929082 5.60215 1.07123 3.05546C1.10243 2.58852 1.29479 2.14689 1.61546 1.80603C1.93612 1.46517 2.36519 1.24622 2.82937 1.1866C3.10754 1.14776 3.39065 1.16466 3.66223 1.2363C3.93381 1.30795 4.18841 1.43292 4.41122 1.60392C4.63403 1.77493 4.82059 1.98856 4.96003 2.23237C5.09947 2.47617 5.18901 2.74529 5.22343 3.02404V4.21958" stroke="#2C2C2C" stroke-width="0.997526" stroke-linecap="round" stroke-linejoin="round"/>
<path d="M2.26666 20L10.2469 20" stroke="#2C2C2C" stroke-width="0.897773" stroke-linecap="round"/>
</svg>
