<svg width="28" height="28" viewBox="0 0 28 28" fill="none" xmlns="http://www.w3.org/2000/svg">
<g clip-path="url(#clip0_6122_3067)">
<rect x="0.241943" width="27.621" height="27.621" rx="5.52419" fill="#D8D7FE"/>
<g clip-path="url(#clip1_6122_3067)">
<path d="M8.70516 5.73132H19.4126C21.031 5.73132 22.3516 7.039 22.3516 8.67037V18.9635C22.3516 20.5819 21.044 21.9025 19.4126 21.9025H8.70516C7.07379 21.8896 5.76611 20.5819 5.76611 18.9505V8.67037C5.76611 7.039 7.07379 5.73132 8.70516 5.73132Z" fill="#330000"/>
<path d="M13.7806 15.403H11.2041L10.6862 17.0214C10.6732 17.0861 10.6215 17.125 10.5567 17.112H9.26199C9.18431 17.112 9.17136 17.0732 9.18431 16.9826L11.4112 10.5866C11.4371 10.5219 11.4501 10.4442 11.476 10.3535C11.5019 10.2111 11.5148 10.0557 11.5148 9.90038C11.5019 9.86154 11.5407 9.83564 11.5666 9.8227H13.3533C13.4051 9.8227 13.431 9.84859 13.444 9.87448L15.9687 16.9826C15.9946 17.0603 15.9687 17.0991 15.904 17.0991H14.4539C14.4021 17.112 14.3632 17.0732 14.3373 17.0214L13.7806 15.403ZM11.6055 13.9917H13.3533C13.3145 13.8493 13.2627 13.6681 13.198 13.4997C13.1332 13.3185 13.0685 13.1113 13.0167 12.9042C12.952 12.6841 12.8872 12.4769 12.8225 12.2697C12.7578 12.0496 12.693 11.8554 12.6412 11.6612C12.5895 11.467 12.5377 11.2857 12.4859 11.1174H12.4729C12.4082 11.4152 12.3305 11.713 12.2399 12.0108C12.1363 12.3474 12.0327 12.6841 11.9162 13.0336C11.8126 13.3832 11.709 13.7069 11.6055 13.9917ZM17.5094 11.0527C17.2764 11.0656 17.0563 10.975 16.9009 10.8067C16.7455 10.6384 16.6549 10.4053 16.6679 10.1723C16.6549 9.93922 16.7455 9.71912 16.9139 9.56375C17.0822 9.40838 17.3023 9.31775 17.5224 9.31775C17.7943 9.31775 18.0014 9.39543 18.1568 9.56375C18.3122 9.73206 18.3899 9.95217 18.3899 10.1723C18.4028 10.4053 18.3122 10.6384 18.1439 10.8067C17.9755 10.975 17.7425 11.0656 17.5094 11.0527ZM16.7326 17.0473V11.726C16.7326 11.6612 16.7585 11.6353 16.8232 11.6353H18.1956C18.2604 11.6353 18.2863 11.6742 18.2863 11.726V17.0473C18.2863 17.125 18.2604 17.1638 18.1956 17.1638H16.8362C16.7714 17.1509 16.7326 17.112 16.7326 17.0473Z" fill="#FF9A00"/>
</g>
<g clip-path="url(#clip2_6122_3067)">
<path d="M8.70088 5.73132H19.4039C21.0267 5.73132 22.3387 7.04328 22.3387 8.66609V18.9548C22.3387 20.5776 21.0267 21.8896 19.4039 21.8896H8.70088C7.07807 21.8896 5.76611 20.5776 5.76611 18.9548V8.66609C5.76611 7.04328 7.07807 5.73132 8.70088 5.73132Z" fill="#001E36"/>
<path d="M11.7046 9.83997C11.4974 9.83997 11.2903 9.83997 11.0763 9.84696C10.8621 9.85382 10.6618 9.85382 10.4754 9.86081C10.2889 9.86767 10.1163 9.86767 9.95062 9.87453C9.79176 9.8814 9.68131 9.8814 9.56388 9.8814C9.51559 9.8814 9.49487 9.90898 9.49487 9.9574V17.0629C9.49487 17.125 9.52245 17.1527 9.57774 17.1527H10.9174C10.9657 17.1458 11.0003 17.1043 10.9933 17.056V14.8394C11.1244 14.8394 11.2211 14.8394 11.2903 14.8463C11.3593 14.8532 11.4697 14.8532 11.6355 14.8532C12.2018 14.8532 12.7197 14.791 13.1891 14.6184C13.638 14.4527 14.0248 14.1627 14.3009 13.776C14.5771 13.3893 14.7152 12.899 14.7152 12.3051C14.7152 11.9944 14.6601 11.6975 14.5565 11.4075C14.4467 11.112 14.2748 10.8436 14.0523 10.6203C13.7897 10.3652 13.4736 10.1717 13.127 10.054C12.7403 9.90898 12.2708 9.83997 11.7046 9.83997ZM11.8587 11.2001C12.1047 11.2047 12.3442 11.2477 12.5677 11.3384C12.768 11.4144 12.9337 11.5525 13.0511 11.732C13.1613 11.9177 13.2163 12.1309 13.21 12.3467C13.21 12.6504 13.1408 12.8853 12.9958 13.0579C12.8438 13.2305 12.6505 13.3618 12.4296 13.4239C12.1741 13.5068 11.9048 13.5481 11.6355 13.5481H11.2694C11.1866 13.5481 11.097 13.5412 11.0003 13.5344V11.2142C11.0486 11.2072 11.1453 11.2003 11.2834 11.2073C11.4146 11.2003 11.5733 11.2003 11.7529 11.2003C11.7883 11.1995 11.8235 11.1994 11.8587 11.2001ZM17.65 11.5526C17.1597 11.5526 16.7522 11.6285 16.4278 11.7942C16.1309 11.9324 15.8753 12.1533 15.7027 12.4294C15.5509 12.685 15.4679 12.968 15.4679 13.2651C15.462 13.5093 15.5165 13.7513 15.6267 13.9694C15.7559 14.2016 15.9352 14.4021 16.1516 14.5563C16.4554 14.7641 16.785 14.9312 17.1321 15.0535C17.4704 15.1846 17.6983 15.2882 17.8089 15.3779C17.9193 15.4678 17.9746 15.5575 17.9746 15.6542C17.9746 15.7785 17.8986 15.8959 17.7882 15.9442C17.6639 16.0064 17.4774 16.041 17.215 16.041C16.9388 16.041 16.6625 16.0064 16.4001 15.9374C16.0987 15.8701 15.8098 15.7559 15.5439 15.5991C15.5231 15.5852 15.5024 15.5784 15.4817 15.5922C15.461 15.6059 15.4541 15.6335 15.4541 15.6542V16.8557C15.4473 16.911 15.4817 16.9593 15.5301 16.9869C15.7541 17.0915 15.9909 17.1658 16.2345 17.2079C16.5452 17.27 16.8558 17.2976 17.1734 17.2976C17.6706 17.2976 18.085 17.2218 18.4234 17.0767C18.7341 16.9525 19.0034 16.7384 19.1967 16.4621C19.3777 16.1905 19.4717 15.8702 19.466 15.5438C19.4728 15.2972 19.4183 15.0528 19.3073 14.8326C19.176 14.5977 18.9895 14.4044 18.7617 14.2594C18.4283 14.0501 18.0714 13.8808 17.6983 13.7552C17.5317 13.6863 17.3681 13.6103 17.208 13.5274C17.1183 13.4791 17.0354 13.4169 16.9733 13.3409C16.9318 13.2856 16.9042 13.2236 16.9042 13.1615C16.9042 13.0993 16.925 13.0303 16.9594 12.975C17.0078 12.906 17.0837 12.8576 17.1734 12.8369C17.3047 12.8024 17.4497 12.7816 17.5877 12.7885C17.8502 12.7885 18.1056 12.823 18.3612 12.8783C18.5961 12.9266 18.817 13.0026 19.0241 13.1132C19.0517 13.1269 19.0863 13.1269 19.1484 13.1132C19.1592 13.1052 19.1679 13.0948 19.174 13.0827C19.18 13.0707 19.183 13.0575 19.183 13.044V11.9185C19.183 11.8908 19.176 11.8632 19.1691 11.8357C19.1553 11.8081 19.1277 11.7804 19.1001 11.7735C18.9097 11.6957 18.7101 11.6423 18.5062 11.6147C18.2227 11.5734 17.9365 11.5527 17.65 11.5526Z" fill="#31A8FF"/>
</g>
</g>
<defs>
<clipPath id="clip0_6122_3067">
<rect width="27.621" height="27.621" fill="white" transform="translate(0.241943)"/>
</clipPath>
<clipPath id="clip1_6122_3067">
<rect width="16.5726" height="16.5726" fill="white" transform="translate(5.76611 5.52417)"/>
</clipPath>
<clipPath id="clip2_6122_3067">
<rect width="16.5726" height="16.5726" fill="white" transform="translate(5.76611 5.52417)"/>
</clipPath>
</defs>
</svg>
