<svg width="50" height="50" viewBox="0 0 50 50" fill="none" xmlns="http://www.w3.org/2000/svg">
<g clip-path="url(#clip0_2129_13389)">
<rect width="50" height="50" rx="10" fill="#E9F1F7"/>
<g clip-path="url(#clip1_2129_13389)">
<path d="M15.3203 10.375H34.7031C37.6328 10.375 40.0234 12.7422 40.0234 15.6953V34.3281C40.0234 37.2578 37.6563 39.6484 34.7031 39.6484H15.3203C12.3672 39.625 10 37.2578 10 34.3047V15.6953C10 12.7422 12.3672 10.375 15.3203 10.375Z" fill="#330000"/>
<path d="M24.5079 27.8828H19.8439L18.9064 30.8125C18.8829 30.9297 18.7892 31 18.672 30.9766H16.3282C16.1876 30.9766 16.1642 30.9063 16.1876 30.7422L20.2189 19.1641C20.2657 19.0469 20.2892 18.9062 20.336 18.7422C20.3829 18.4844 20.4064 18.2031 20.4064 17.9219C20.3829 17.8516 20.4532 17.8047 20.5001 17.7813H23.7345C23.8282 17.7813 23.8751 17.8281 23.8985 17.875L28.4689 30.7422C28.5157 30.8828 28.4689 30.9531 28.3517 30.9531H25.7267C25.6329 30.9766 25.5626 30.9063 25.5157 30.8125L24.5079 27.8828ZM20.5704 25.3281H23.7345C23.6642 25.0703 23.5704 24.7422 23.4532 24.4375C23.336 24.1094 23.2189 23.7344 23.1251 23.3594C23.0079 22.9609 22.8907 22.5859 22.7735 22.2109C22.6564 21.8125 22.5392 21.4609 22.4454 21.1094C22.3517 20.7578 22.2579 20.4297 22.1642 20.125H22.1407C22.0235 20.6641 21.8829 21.2031 21.7189 21.7422C21.5314 22.3516 21.3439 22.9609 21.1329 23.5938C20.9454 24.2266 20.7579 24.8125 20.5704 25.3281ZM31.2579 20.0078C30.836 20.0313 30.4376 19.8672 30.1564 19.5625C29.8751 19.2578 29.711 18.8359 29.7345 18.4141C29.711 17.9922 29.8751 17.5938 30.1798 17.3125C30.4845 17.0313 30.8829 16.8672 31.2814 16.8672C31.7735 16.8672 32.1485 17.0078 32.4298 17.3125C32.711 17.6172 32.8517 18.0156 32.8517 18.4141C32.8751 18.8359 32.711 19.2578 32.4064 19.5625C32.1017 19.8672 31.6798 20.0313 31.2579 20.0078ZM29.8517 30.8594V21.2266C29.8517 21.1094 29.8985 21.0625 30.0157 21.0625H32.5001C32.6173 21.0625 32.6642 21.1328 32.6642 21.2266V30.8594C32.6642 31 32.6173 31.0703 32.5001 31.0703H30.0392C29.922 31.0469 29.8517 30.9766 29.8517 30.8594Z" fill="#FF9A00"/>
</g>
<g clip-path="url(#clip2_2129_13389)">
<path d="M15.3126 10.375H34.6874C37.6251 10.375 40 12.7499 40 15.6876V34.3124C40 37.2501 37.6251 39.625 34.6874 39.625H15.3126C12.3749 39.625 10 37.2501 10 34.3124V15.6876C10 12.7499 12.3749 10.375 15.3126 10.375Z" fill="#001E36"/>
<path d="M20.7501 17.8124C20.3751 17.8124 20.0001 17.8124 19.6127 17.8251C19.225 17.8375 18.8624 17.8375 18.5249 17.8502C18.1874 17.8626 17.875 17.8626 17.575 17.875C17.2874 17.8874 17.0875 17.8874 16.8749 17.8874C16.7875 17.8874 16.75 17.9373 16.75 18.025V30.8875C16.75 31 16.7999 31.0502 16.9 31.0502H19.3251C19.4125 31.0375 19.4751 30.9625 19.4624 30.8751V26.8626C19.6998 26.8626 19.8749 26.8626 20.0001 26.875C20.125 26.8874 20.3249 26.8874 20.6249 26.8874C21.6501 26.8874 22.5876 26.7749 23.4374 26.4625C24.25 26.1625 24.9501 25.6375 25.45 24.9374C25.95 24.2374 26.2 23.3499 26.2 22.2749C26.2 21.7124 26.1002 21.175 25.9127 20.65C25.714 20.1151 25.4027 19.6292 25 19.225C24.5246 18.7632 23.9524 18.413 23.3249 18.1998C22.6248 17.9373 21.775 17.8124 20.7501 17.8124ZM21.029 20.2745C21.4743 20.283 21.9079 20.3608 22.3124 20.5248C22.675 20.6624 22.975 20.9125 23.1876 21.2373C23.3869 21.5735 23.4867 21.9595 23.4752 22.3502C23.4752 22.9 23.35 23.3252 23.0875 23.6376C22.8123 23.95 22.4624 24.1877 22.0626 24.3002C21.5999 24.4502 21.1124 24.5249 20.6249 24.5249H19.9623C19.8123 24.5249 19.6502 24.5125 19.4751 24.5001V20.3001C19.5625 20.2874 19.7376 20.275 19.9877 20.2877C20.2251 20.275 20.5124 20.275 20.8375 20.275C20.9016 20.2734 20.9654 20.2733 21.029 20.2745ZM31.5126 20.9127C30.625 20.9127 29.8874 21.0501 29.3001 21.3501C28.7627 21.6002 28.3 22 27.9876 22.4999C27.7127 22.9626 27.5624 23.4749 27.5624 24.0126C27.5517 24.4548 27.6505 24.8928 27.85 25.2876C28.0838 25.708 28.4084 26.0709 28.8002 26.35C29.35 26.7261 29.9467 27.0287 30.5751 27.25C31.1875 27.4874 31.6 27.6749 31.8002 27.8373C32.0001 28 32.1002 28.1624 32.1002 28.3375C32.1002 28.5625 31.9626 28.7751 31.7627 28.8625C31.5377 28.975 31.2002 29.0376 30.7251 29.0376C30.2252 29.0376 29.725 28.975 29.2499 28.8501C28.7044 28.7283 28.1814 28.5216 27.7 28.2377C27.6625 28.2126 27.625 28.2002 27.5875 28.2252C27.55 28.2501 27.5376 28.3 27.5376 28.3375V30.5125C27.5252 30.6126 27.5875 30.7 27.6752 30.7499C28.0805 30.9393 28.5093 31.0738 28.9502 31.15C29.5127 31.2625 30.0749 31.3124 30.6498 31.3124C31.5498 31.3124 32.3001 31.1751 32.9125 30.9126C33.475 30.6876 33.9625 30.3002 34.3124 29.8C34.6401 29.3083 34.8102 28.7284 34.7999 28.1376C34.8123 27.6913 34.7135 27.2489 34.5126 26.8502C34.2749 26.425 33.9374 26.0751 33.5249 25.8126C32.9215 25.4336 32.2753 25.1273 31.6 24.8999C31.2984 24.7751 31.0023 24.6375 30.7124 24.4874C30.55 24.4 30.4 24.2875 30.2875 24.1499C30.2125 24.0498 30.1626 23.9376 30.1626 23.8251C30.1626 23.7126 30.2001 23.5877 30.2624 23.4876C30.3501 23.3627 30.4874 23.275 30.6498 23.2375C30.8875 23.1752 31.15 23.1374 31.3998 23.1498C31.8749 23.1498 32.3373 23.2124 32.8 23.3125C33.2252 23.3999 33.625 23.5375 34 23.7377C34.0499 23.7625 34.1125 23.7625 34.225 23.7377C34.2445 23.7232 34.2604 23.7043 34.2713 23.6826C34.2821 23.6608 34.2877 23.6368 34.2876 23.6125V21.5751C34.2876 21.5249 34.2749 21.475 34.2625 21.4251C34.2374 21.3752 34.1875 21.325 34.1376 21.3126C33.7928 21.1717 33.4316 21.075 33.0625 21.025C32.5492 20.9503 32.0313 20.9129 31.5126 20.9127Z" fill="#31A8FF"/>
</g>
</g>
<defs>
<clipPath id="clip0_2129_13389">
<rect width="50" height="50" fill="white"/>
</clipPath>
<clipPath id="clip1_2129_13389">
<rect width="30" height="30" fill="white" transform="translate(10 10)"/>
</clipPath>
<clipPath id="clip2_2129_13389">
<rect width="30" height="30" fill="white" transform="translate(10 10)"/>
</clipPath>
</defs>
</svg>
